# xmcd CD database file
#
# Track frame offsets:
#	150
#	12610
#	27247
#	53712
#	65162
#	83165
#	106570
#	123722
#	147072
#	164400
#	180937
#	198067
#
# Disc length: 2761 seconds
#
# Revision: 0
# Processed by: cddbd v1.5.1PL0 Copyright (c) Steve Scherf et al.
# Submitted via: CDex 1.51
#
DISCID=990ac70c
DTITLE=さだまさし - 帰去来
DYEAR=1976
DGENRE=Folk
TTITLE0=多情仏心
TTITLE1=線香花火
TTITLE2=異邦人
TTITLE3=冗句
TTITLE4=第三病棟
TTITLE5=夕凪
TTITLE6=童話作家
TTITLE7=転宅
TTITLE8=絵はがき坂
TTITLE9=指定券
TTITLE10=胡桃の日
TTITLE11=多情仏心
EXTD=YEAR: 1976
EXTT0=
EXTT1=
EXTT2=
EXTT3=
EXTT4=
EXTT5=
EXTT6=
EXTT7=
EXTT8=
EXTT9=
EXTT10=
EXTT11=
PLAYORDER=
